<svg xmlns="http://www.w3.org/2000/svg" xmlns:xlink="http://www.w3.org/1999/xlink" width="450" zoomAndPan="magnify" viewBox="0 0 337.5 73.499998" height="98" preserveAspectRatio="xMidYMid meet" version="1.0"><defs><g/><clipPath id="id1"><path d="M 8.203125 32 L 23 32 L 23 45 L 8.203125 45 Z M 8.203125 32 " clip-rule="nonzero"/></clipPath><clipPath id="id2"><path d="M 8.203125 40 L 23 40 L 23 46 L 8.203125 46 Z M 8.203125 40 " clip-rule="nonzero"/></clipPath><clipPath id="id3"><path d="M 51 32 L 66.566406 32 L 66.566406 45 L 51 45 Z M 51 32 " clip-rule="nonzero"/></clipPath><clipPath id="id4"><path d="M 51 40 L 66.566406 40 L 66.566406 46 L 51 46 Z M 51 40 " clip-rule="nonzero"/></clipPath><clipPath id="id5"><path d="M 28 8.945312 L 47 8.945312 L 47 22 L 28 22 Z M 28 8.945312 " clip-rule="nonzero"/></clipPath><clipPath id="id6"><path d="M 36 30.984375 L 39 30.984375 L 39 34 L 36 34 Z M 36 30.984375 " clip-rule="nonzero"/></clipPath><clipPath id="id7"><path d="M 28.097656 39 L 31 39 L 31 41 L 28.097656 41 Z M 28.097656 39 " clip-rule="nonzero"/></clipPath><clipPath id="id8"><path d="M 36 52 L 39 52 L 39 52.871094 L 36 52.871094 Z M 36 52 " clip-rule="nonzero"/></clipPath><clipPath id="id9"><path d="M 43.898438 39.707031 L 46.773438 39.707031 L 46.773438 40.988281 L 43.898438 40.988281 Z M 43.898438 39.707031 " clip-rule="nonzero"/></clipPath></defs><path fill="rgb(5.488586%, 27.059937%, 32.939148%)" d="M 37.257812 24.421875 L 37.257812 25.648438 L 37.257812 24.421875 C 28.136719 24.421875 21.984375 27.394531 21.726562 27.519531 C 21.308594 27.726562 21.042969 28.152344 21.042969 28.621094 C 21.042969 33.996094 21.859375 39.003906 23.472656 43.507812 C 24.765625 47.125 26.574219 50.429688 28.847656 53.316406 C 32.742188 58.269531 36.632812 60.296875 36.796875 60.378906 C 36.972656 60.46875 37.164062 60.515625 37.355469 60.515625 C 37.527344 60.515625 37.703125 60.480469 37.863281 60.40625 C 38.027344 60.332031 41.945312 58.527344 45.855469 53.667969 C 48.132812 50.839844 49.945312 47.550781 51.242188 43.886719 C 52.855469 39.335938 53.671875 34.203125 53.671875 28.621094 C 53.671875 28.121094 53.367188 27.671875 52.902344 27.484375 C 47.871094 25.453125 42.605469 24.421875 37.257812 24.421875 Z M 37.257812 25.648438 C 41.726562 25.648438 46.917969 26.390625 52.441406 28.621094 C 52.441406 52.476562 37.355469 59.289062 37.355469 59.289062 C 37.355469 59.289062 22.269531 51.570312 22.269531 28.621094 C 22.269531 28.621094 28.316406 25.648438 37.257812 25.648438 " fill-opacity="1" fill-rule="nonzero"/><path fill="rgb(5.488586%, 27.059937%, 32.939148%)" d="M 37.265625 26.761719 C 29.132812 26.761719 23.683594 29.394531 23.453125 29.507812 C 23.3125 29.574219 23.226562 29.71875 23.226562 29.871094 C 23.226562 34.683594 23.953125 39.15625 25.394531 43.175781 C 26.546875 46.394531 28.152344 49.332031 30.171875 51.898438 C 33.621094 56.285156 37.027344 58.058594 37.167969 58.132812 C 37.226562 58.160156 37.292969 58.175781 37.355469 58.175781 C 37.414062 58.175781 37.472656 58.164062 37.523438 58.140625 C 37.667969 58.074219 41.085938 56.5 44.535156 52.210938 C 46.558594 49.703125 48.167969 46.777344 49.320312 43.523438 C 50.757812 39.460938 51.488281 34.867188 51.488281 29.871094 C 51.488281 29.707031 51.386719 29.554688 51.230469 29.496094 C 46.738281 27.679688 42.039062 26.761719 37.265625 26.761719 Z M 37.265625 27.171875 C 41.332031 27.171875 46.054688 27.847656 51.078125 29.871094 C 51.078125 51.570312 37.355469 57.765625 37.355469 57.765625 C 37.355469 57.765625 23.632812 50.746094 23.632812 29.871094 C 23.632812 29.871094 29.136719 27.171875 37.265625 27.171875 " fill-opacity="1" fill-rule="nonzero"/><path fill="rgb(5.488586%, 27.059937%, 32.939148%)" d="M 20.457031 38.25 C 20.414062 38.15625 20.367188 38.058594 20.320312 37.957031 C 20.269531 37.859375 20.214844 37.757812 20.160156 37.65625 C 20.097656 37.558594 20.035156 37.453125 19.972656 37.351562 C 19.902344 37.25 19.835938 37.148438 19.761719 37.042969 C 19.6875 36.945312 19.613281 36.839844 19.53125 36.742188 C 19.449219 36.644531 19.367188 36.539062 19.277344 36.445312 L 19.144531 36.300781 C 19.101562 36.25 19.054688 36.207031 19.007812 36.160156 C 18.824219 35.96875 18.628906 35.796875 18.429688 35.625 C 18.230469 35.457031 18.027344 35.300781 17.824219 35.15625 C 17.625 35.011719 17.421875 34.878906 17.226562 34.757812 C 17.03125 34.640625 16.84375 34.53125 16.664062 34.4375 C 16.3125 34.25 16.003906 34.113281 15.789062 34.023438 C 15.574219 33.933594 15.445312 33.890625 15.445312 33.890625 C 15.445312 33.890625 15.574219 33.921875 15.800781 33.996094 C 16.023438 34.070312 16.339844 34.183594 16.710938 34.347656 C 16.894531 34.425781 17.09375 34.519531 17.300781 34.625 C 17.507812 34.734375 17.722656 34.847656 17.941406 34.980469 C 18.160156 35.113281 18.378906 35.257812 18.597656 35.414062 C 18.8125 35.570312 19.03125 35.734375 19.234375 35.917969 C 19.285156 35.964844 19.339844 36.007812 19.390625 36.054688 L 19.539062 36.195312 C 19.640625 36.285156 19.730469 36.386719 19.828125 36.484375 C 19.921875 36.582031 20.007812 36.683594 20.097656 36.785156 C 20.179688 36.886719 20.261719 36.988281 20.34375 37.089844 C 20.417969 37.195312 20.496094 37.300781 20.566406 37.402344 C 20.636719 37.507812 20.703125 37.609375 20.765625 37.710938 C 20.824219 37.816406 20.882812 37.917969 20.9375 38.015625 C 20.957031 38.046875 20.972656 38.074219 20.984375 38.105469 C 20.820312 36.773438 19.929688 34.128906 15.644531 32.699219 C 12.070312 31.507812 12.925781 29.675781 12.925781 29.675781 C 12.925781 29.675781 10.207031 31.90625 13.886719 35.28125 C 13.886719 35.28125 18.0625 35.972656 20.507812 38.371094 C 20.492188 38.332031 20.476562 38.289062 20.457031 38.25 " fill-opacity="1" fill-rule="nonzero"/><g clip-path="url(#id1)"><path fill="rgb(5.488586%, 27.059937%, 32.939148%)" d="M 22.933594 44.675781 C 22.933594 44.675781 20.503906 42.296875 16.75 41.589844 C 16.75 41.589844 8.199219 38.371094 8.597656 32.65625 C 8.597656 32.65625 9.570312 35.703125 12.175781 35.703125 C 12.175781 35.703125 19 35.65625 21.296875 40.550781 C 21.296875 40.550781 19.839844 39.492188 17.964844 38.984375 C 17.964844 38.984375 22.800781 41.679688 22.933594 44.675781 " fill-opacity="1" fill-rule="nonzero"/></g><g clip-path="url(#id2)"><path fill="rgb(5.488586%, 27.059937%, 32.939148%)" d="M 8.316406 40.96875 C 8.316406 40.96875 9.347656 43.082031 11.503906 42.902344 C 11.503906 42.902344 19.738281 40.175781 22.933594 45.964844 C 22.933594 45.964844 17.277344 42.753906 12.414062 44.292969 C 8.582031 45.5 8.316406 40.96875 8.316406 40.96875 " fill-opacity="1" fill-rule="nonzero"/></g><path fill="rgb(5.488586%, 27.059937%, 32.939148%)" d="M 22.933594 46.375 C 22.40625 46.078125 21.875 45.828125 21.363281 45.621094 C 21.949219 46.554688 22.652344 48.042969 22.796875 49.3125 C 23.03125 51.332031 25.253906 52.296875 25.253906 52.296875 C 23.757812 52.339844 22.496094 50.984375 22.109375 49.25 C 21.792969 47.828125 20.335938 45.789062 19.816406 45.097656 C 18.609375 44.761719 17.75 44.675781 17.75 44.675781 C 20.34375 47.148438 20.949219 50.574219 20.949219 50.574219 C 22.933594 56.339844 27.1875 52.195312 27.1875 52.195312 C 25.769531 50.726562 22.933594 46.375 22.933594 46.375 " fill-opacity="1" fill-rule="nonzero"/><path fill="rgb(5.488586%, 27.059937%, 32.939148%)" d="M 26.507812 53.289062 C 26.507812 53.289062 22.96875 56.070312 15.757812 53.25 C 15.757812 53.25 21.539062 58.65625 28.230469 54.757812 C 28.230469 54.757812 28.230469 53.210938 25.214844 54.988281 C 25.214844 54.988281 23.632812 55.953125 20.691406 55.027344 C 20.691406 55.027344 23.898438 55.242188 25.097656 54.625 C 26.582031 53.867188 27.265625 53.519531 27.765625 53.636719 C 27.765625 53.636719 27.726562 52.671875 26.507812 53.289062 " fill-opacity="1" fill-rule="nonzero"/><path fill="rgb(5.488586%, 27.059937%, 32.939148%)" d="M 21.601562 52.75 C 18.933594 52.695312 15.921875 50.933594 15.921875 50.933594 C 17.574219 51.769531 19.75 51.878906 20.894531 51.871094 C 20.503906 51.328125 20.277344 50.910156 20.277344 50.910156 C 18.242188 50.910156 14.089844 49.492188 14.089844 49.492188 C 15.714844 53.558594 22.933594 53.867188 22.933594 53.867188 C 22.4375 53.585938 21.984375 53.175781 21.601562 52.75 " fill-opacity="1" fill-rule="nonzero"/><path fill="rgb(5.488586%, 27.059937%, 32.939148%)" d="M 28.425781 55.011719 C 28.425781 55.011719 27.1875 55.476562 25.484375 57.765625 C 25.484375 57.765625 24.09375 59.800781 22.46875 59.996094 C 22.46875 59.996094 25.714844 61.5 28.617188 59.417969 C 28.617188 59.417969 31.59375 57.871094 32.136719 57.949219 C 32.136719 57.949219 30.628906 55.671875 27.960938 57.175781 C 27.960938 57.175781 28.773438 55.941406 30.164062 56.132812 C 30.164062 56.132812 29.53125 54.996094 28.425781 55.011719 " fill-opacity="1" fill-rule="nonzero"/><path fill="rgb(5.488586%, 27.059937%, 32.939148%)" d="M 32.546875 58.375 C 32.546875 58.375 30.082031 58.695312 29.199219 61.925781 C 29.199219 61.925781 28.578125 63.214844 27.960938 63.984375 C 27.960938 63.984375 29.25 64.039062 31.207031 62.75 C 33.167969 61.464844 34.664062 60.351562 35.4375 60.519531 C 35.4375 60.519531 33.785156 58.859375 31.929688 60.519531 C 31.929688 60.519531 32.136719 59.378906 33.890625 59.289062 C 33.890625 59.289062 33.136719 58.117188 32.546875 58.375 " fill-opacity="1" fill-rule="nonzero"/><path fill="rgb(5.488586%, 27.059937%, 32.939148%)" d="M 54.308594 38.25 C 54.355469 38.15625 54.398438 38.058594 54.445312 37.957031 C 54.5 37.859375 54.554688 37.757812 54.609375 37.65625 C 54.667969 37.558594 54.730469 37.453125 54.792969 37.351562 C 54.863281 37.25 54.929688 37.148438 55.003906 37.042969 C 55.082031 36.945312 55.15625 36.839844 55.238281 36.742188 C 55.320312 36.644531 55.398438 36.539062 55.488281 36.445312 L 55.621094 36.300781 C 55.664062 36.25 55.714844 36.207031 55.757812 36.160156 C 55.941406 35.96875 56.140625 35.796875 56.335938 35.625 C 56.539062 35.457031 56.738281 35.300781 56.941406 35.15625 C 57.144531 35.011719 57.347656 34.878906 57.542969 34.757812 C 57.738281 34.640625 57.925781 34.53125 58.101562 34.4375 C 58.457031 34.25 58.761719 34.113281 58.976562 34.023438 C 59.195312 33.933594 59.324219 33.890625 59.324219 33.890625 C 59.324219 33.890625 59.191406 33.921875 58.96875 33.996094 C 58.746094 34.070312 58.429688 34.183594 58.058594 34.347656 C 57.871094 34.425781 57.675781 34.519531 57.464844 34.625 C 57.261719 34.734375 57.042969 34.847656 56.828125 34.980469 C 56.609375 35.113281 56.390625 35.257812 56.171875 35.414062 C 55.957031 35.570312 55.738281 35.734375 55.53125 35.917969 C 55.480469 35.964844 55.429688 36.007812 55.378906 36.054688 L 55.230469 36.195312 C 55.128906 36.285156 55.035156 36.386719 54.941406 36.484375 C 54.847656 36.582031 54.761719 36.683594 54.671875 36.785156 C 54.585938 36.886719 54.503906 36.988281 54.421875 37.089844 C 54.347656 37.195312 54.273438 37.300781 54.199219 37.402344 C 54.132812 37.507812 54.066406 37.609375 54.003906 37.710938 C 53.941406 37.816406 53.886719 37.917969 53.828125 38.015625 C 53.8125 38.046875 53.796875 38.074219 53.78125 38.105469 C 53.949219 36.773438 54.839844 34.128906 59.125 32.699219 C 62.695312 31.507812 61.839844 29.675781 61.839844 29.675781 C 61.839844 29.675781 64.5625 31.90625 60.882812 35.28125 C 60.882812 35.28125 56.703125 35.972656 54.257812 38.371094 C 54.273438 38.332031 54.289062 38.289062 54.308594 38.25 " fill-opacity="1" fill-rule="nonzero"/><g clip-path="url(#id3)"><path fill="rgb(5.488586%, 27.059937%, 32.939148%)" d="M 51.835938 44.675781 C 51.835938 44.675781 54.265625 42.296875 58.019531 41.589844 C 58.019531 41.589844 66.566406 38.371094 66.171875 32.65625 C 66.171875 32.65625 65.195312 35.703125 62.59375 35.703125 C 62.59375 35.703125 55.765625 35.65625 53.46875 40.550781 C 53.46875 40.550781 54.925781 39.492188 56.804688 38.984375 C 56.804688 38.984375 51.964844 41.679688 51.835938 44.675781 " fill-opacity="1" fill-rule="nonzero"/></g><g clip-path="url(#id4)"><path fill="rgb(5.488586%, 27.059937%, 32.939148%)" d="M 66.453125 40.96875 C 66.453125 40.96875 65.421875 43.082031 63.265625 42.902344 C 63.265625 42.902344 55.027344 40.175781 51.835938 45.964844 C 51.835938 45.964844 57.488281 42.753906 62.355469 44.292969 C 66.183594 45.5 66.453125 40.96875 66.453125 40.96875 " fill-opacity="1" fill-rule="nonzero"/></g><path fill="rgb(5.488586%, 27.059937%, 32.939148%)" d="M 51.835938 46.375 C 52.359375 46.078125 52.890625 45.828125 53.402344 45.621094 C 52.816406 46.554688 52.117188 48.042969 51.96875 49.3125 C 51.738281 51.332031 49.515625 52.296875 49.515625 52.296875 C 51.007812 52.339844 52.273438 50.984375 52.660156 49.25 C 52.976562 47.828125 54.433594 45.789062 54.949219 45.097656 C 56.15625 44.761719 57.015625 44.675781 57.015625 44.675781 C 54.425781 47.148438 53.820312 50.574219 53.820312 50.574219 C 51.835938 56.339844 47.582031 52.195312 47.582031 52.195312 C 49 50.726562 51.835938 46.375 51.835938 46.375 " fill-opacity="1" fill-rule="nonzero"/><path fill="rgb(5.488586%, 27.059937%, 32.939148%)" d="M 48.257812 53.289062 C 48.257812 53.289062 51.796875 56.070312 59.007812 53.25 C 59.007812 53.25 53.226562 58.65625 46.539062 54.757812 C 46.539062 54.757812 46.539062 53.210938 49.554688 54.988281 C 49.554688 54.988281 51.132812 55.953125 54.078125 55.027344 C 54.078125 55.027344 50.871094 55.242188 49.667969 54.625 C 48.183594 53.867188 47.503906 53.519531 47 53.636719 C 47 53.636719 47.039062 52.671875 48.257812 53.289062 " fill-opacity="1" fill-rule="nonzero"/><path fill="rgb(5.488586%, 27.059937%, 32.939148%)" d="M 53.167969 52.75 C 55.835938 52.695312 58.847656 50.933594 58.847656 50.933594 C 57.195312 51.769531 55.015625 51.878906 53.875 51.871094 C 54.261719 51.328125 54.488281 50.910156 54.488281 50.910156 C 56.527344 50.910156 60.675781 49.492188 60.675781 49.492188 C 59.050781 53.558594 51.835938 53.867188 51.835938 53.867188 C 52.328125 53.585938 52.78125 53.175781 53.167969 52.75 " fill-opacity="1" fill-rule="nonzero"/><path fill="rgb(5.488586%, 27.059937%, 32.939148%)" d="M 46.34375 55.011719 C 46.34375 55.011719 47.582031 55.476562 49.28125 57.765625 C 49.28125 57.765625 50.675781 59.800781 52.296875 59.996094 C 52.296875 59.996094 49.050781 61.5 46.152344 59.417969 C 46.152344 59.417969 43.171875 57.871094 42.632812 57.949219 C 42.632812 57.949219 44.140625 55.671875 46.808594 57.175781 C 46.808594 57.175781 45.996094 55.941406 44.601562 56.132812 C 44.601562 56.132812 45.234375 54.996094 46.34375 55.011719 " fill-opacity="1" fill-rule="nonzero"/><path fill="rgb(5.488586%, 27.059937%, 32.939148%)" d="M 42.21875 58.375 C 42.21875 58.375 44.6875 58.695312 45.570312 61.925781 C 45.570312 61.925781 46.1875 63.214844 46.808594 63.984375 C 46.808594 63.984375 45.519531 64.039062 43.558594 62.75 C 41.601562 61.464844 40.105469 60.351562 39.332031 60.519531 C 39.332031 60.519531 40.980469 58.859375 42.835938 60.519531 C 42.835938 60.519531 42.632812 59.378906 40.878906 59.289062 C 40.878906 59.289062 41.632812 58.117188 42.21875 58.375 " fill-opacity="1" fill-rule="nonzero"/><g clip-path="url(#id5)"><path fill="rgb(5.488586%, 27.059937%, 32.939148%)" d="M 46.363281 15.183594 C 46.363281 15.183594 45.144531 15.0625 43.753906 16.667969 C 43.753906 16.667969 44.59375 19.15625 41.597656 19.371094 C 41.597656 19.371094 38.007812 19.515625 38.246094 13.675781 C 38.246094 13.675781 38.699219 12.601562 39.300781 12.21875 C 39.300781 12.21875 38.007812 9.539062 37.382812 8.988281 C 36.761719 9.539062 35.46875 12.21875 35.46875 12.21875 C 36.066406 12.601562 36.523438 13.675781 36.523438 13.675781 C 36.761719 19.515625 33.167969 19.371094 33.167969 19.371094 C 30.175781 19.15625 31.015625 16.667969 31.015625 16.667969 C 29.625 15.0625 28.402344 15.183594 28.402344 15.183594 L 31.757812 22 C 33.785156 21.355469 35.523438 21.195312 37.355469 21.171875 C 39.191406 21.195312 41.082031 21.199219 43.011719 22 L 46.363281 15.183594 " fill-opacity="1" fill-rule="nonzero"/></g><path fill="rgb(5.488586%, 27.059937%, 32.939148%)" d="M 32.308594 23.703125 L 31.96875 22.605469 C 32.152344 22.550781 36.53125 21.238281 42.691406 22.441406 L 42.46875 23.570312 C 36.589844 22.421875 32.351562 23.691406 32.308594 23.703125 " fill-opacity="1" fill-rule="nonzero"/><path fill="rgb(5.488586%, 27.059937%, 32.939148%)" d="M 42.46875 36.175781 L 44.039062 34.605469 C 44.28125 34.363281 44.28125 33.964844 44.039062 33.722656 C 43.796875 33.480469 43.402344 33.480469 43.15625 33.722656 L 41.609375 35.273438 C 41.921875 35.542969 42.207031 35.847656 42.46875 36.175781 " fill-opacity="1" fill-rule="nonzero"/><g clip-path="url(#id6)"><path fill="rgb(5.488586%, 27.059937%, 32.939148%)" d="M 37.4375 33.6875 C 37.441406 33.6875 37.445312 33.6875 37.453125 33.6875 C 37.65625 33.6875 37.859375 33.699219 38.058594 33.71875 L 38.058594 31.609375 C 38.058594 31.265625 37.78125 30.988281 37.4375 30.988281 C 37.089844 30.988281 36.8125 31.265625 36.8125 31.609375 L 36.8125 33.71875 C 37.011719 33.699219 37.214844 33.6875 37.417969 33.6875 C 37.425781 33.6875 37.429688 33.6875 37.4375 33.6875 " fill-opacity="1" fill-rule="nonzero"/></g><path fill="rgb(5.488586%, 27.059937%, 32.939148%)" d="M 32.402344 36.175781 C 32.664062 35.847656 32.949219 35.542969 33.261719 35.273438 L 31.710938 33.722656 C 31.46875 33.480469 31.074219 33.480469 30.832031 33.722656 C 30.589844 33.964844 30.589844 34.363281 30.832031 34.605469 L 32.402344 36.175781 " fill-opacity="1" fill-rule="nonzero"/><g clip-path="url(#id7)"><path fill="rgb(5.488586%, 27.059937%, 32.939148%)" d="M 30.871094 40.59375 C 30.871094 40.292969 30.898438 40 30.933594 39.707031 L 28.71875 39.707031 C 28.375 39.707031 28.097656 39.988281 28.097656 40.332031 C 28.097656 40.675781 28.375 40.953125 28.71875 40.953125 L 30.882812 40.953125 C 30.878906 40.835938 30.871094 40.714844 30.871094 40.59375 " fill-opacity="1" fill-rule="nonzero"/></g><path fill="rgb(5.488586%, 27.059937%, 32.939148%)" d="M 30.832031 46.058594 C 30.589844 46.300781 30.589844 46.695312 30.832031 46.9375 C 31.074219 47.183594 31.46875 47.183594 31.710938 46.9375 L 32.851562 45.796875 C 32.597656 45.507812 32.328125 45.1875 32.074219 44.8125 L 30.832031 46.058594 " fill-opacity="1" fill-rule="nonzero"/><g clip-path="url(#id8)"><path fill="rgb(5.488586%, 27.059937%, 32.939148%)" d="M 37.714844 52.21875 L 36.082031 52.21875 C 36.078125 52.238281 36.078125 52.253906 36.078125 52.273438 C 36.078125 52.601562 36.582031 52.867188 37.046875 52.867188 L 37.824219 52.867188 C 38.289062 52.867188 38.792969 52.601562 38.792969 52.273438 C 38.792969 52.253906 38.792969 52.238281 38.792969 52.21875 L 37.714844 52.21875 " fill-opacity="1" fill-rule="nonzero"/></g><path fill="rgb(5.488586%, 27.059937%, 32.939148%)" d="M 39.023438 50.707031 L 35.851562 50.707031 C 35.523438 50.707031 35.257812 50.972656 35.257812 51.300781 C 35.257812 51.628906 35.523438 51.894531 35.851562 51.894531 L 39.023438 51.894531 C 39.347656 51.894531 39.613281 51.628906 39.613281 51.300781 C 39.613281 50.972656 39.347656 50.707031 39.023438 50.707031 " fill-opacity="1" fill-rule="nonzero"/><path fill="rgb(5.488586%, 27.059937%, 32.939148%)" d="M 39.023438 49.203125 L 35.851562 49.203125 C 35.523438 49.203125 35.257812 49.472656 35.257812 49.800781 C 35.257812 50.128906 35.523438 50.394531 35.851562 50.394531 L 39.023438 50.394531 C 39.347656 50.394531 39.613281 50.128906 39.613281 49.800781 C 39.613281 49.472656 39.347656 49.203125 39.023438 49.203125 " fill-opacity="1" fill-rule="nonzero"/><path fill="rgb(5.488586%, 27.059937%, 32.939148%)" d="M 37.117188 37.34375 C 36.394531 37.375 35.90625 37.570312 35.53125 37.835938 C 35.160156 38.101562 34.898438 38.460938 34.710938 38.839844 C 34.335938 39.597656 34.304688 40.441406 34.308594 40.496094 C 34.308594 40.851562 34.019531 41.140625 33.664062 41.140625 C 33.308594 41.140625 33.023438 40.851562 33.023438 40.496094 C 33.023438 40.46875 33.023438 40.144531 33.109375 39.671875 C 33.195312 39.199219 33.363281 38.582031 33.722656 37.96875 C 33.960938 37.5625 34.285156 37.164062 34.726562 36.832031 C 35.3125 36.390625 36.101562 36.09375 37.070312 36.058594 C 37.425781 36.046875 37.722656 36.324219 37.734375 36.679688 C 37.75 37.035156 37.472656 37.332031 37.117188 37.34375 Z M 43.132812 40.59375 C 43.132812 39.300781 42.703125 38.105469 41.980469 37.152344 C 41.34375 36.308594 40.480469 35.652344 39.480469 35.265625 L 39.488281 35.238281 L 39.058594 35.113281 C 38.726562 35.015625 38.386719 34.949219 38.035156 34.914062 L 37.988281 34.90625 L 37.984375 34.90625 C 37.8125 34.890625 37.636719 34.878906 37.449219 34.878906 L 37.421875 34.878906 C 37.238281 34.878906 37.058594 34.890625 36.886719 34.90625 L 36.832031 34.914062 C 36.484375 34.949219 36.144531 35.015625 35.8125 35.113281 L 35.398438 35.234375 L 35.402344 35.261719 C 34.398438 35.644531 33.53125 36.308594 32.890625 37.152344 C 32.167969 38.105469 31.734375 39.300781 31.738281 40.59375 C 31.734375 41.519531 31.894531 42.28125 32.144531 42.914062 C 32.519531 43.859375 33.089844 44.496094 33.546875 44.980469 C 33.777344 45.222656 33.980469 45.429688 34.117188 45.605469 C 34.257812 45.78125 34.324219 45.917969 34.34375 46.027344 C 34.445312 46.558594 34.453125 47.222656 34.453125 47.394531 L 34.453125 47.441406 C 34.453125 48.207031 35.074219 48.824219 35.835938 48.824219 L 39.035156 48.824219 C 39.796875 48.824219 40.417969 48.207031 40.417969 47.441406 L 40.417969 47.394531 C 40.417969 47.226562 40.425781 46.558594 40.527344 46.027344 C 40.539062 45.953125 40.574219 45.871094 40.636719 45.769531 C 40.746094 45.589844 40.953125 45.367188 41.210938 45.097656 C 41.59375 44.695312 42.082031 44.1875 42.46875 43.464844 C 42.859375 42.742188 43.136719 41.808594 43.132812 40.59375 " fill-opacity="1" fill-rule="nonzero"/><path fill="rgb(5.488586%, 27.059937%, 32.939148%)" d="M 42.796875 44.8125 C 42.542969 45.1875 42.277344 45.507812 42.019531 45.796875 L 43.15625 46.9375 C 43.402344 47.183594 43.796875 47.183594 44.039062 46.9375 C 44.28125 46.695312 44.28125 46.300781 44.039062 46.058594 L 42.796875 44.8125 " fill-opacity="1" fill-rule="nonzero"/><g clip-path="url(#id9)"><path fill="rgb(5.488586%, 27.059937%, 32.939148%)" d="M 46.152344 39.707031 L 43.9375 39.707031 C 43.972656 40 43.996094 40.292969 43.996094 40.59375 C 43.996094 40.714844 43.996094 40.835938 43.988281 40.953125 L 46.152344 40.953125 C 46.496094 40.953125 46.773438 40.675781 46.773438 40.332031 C 46.773438 39.988281 46.496094 39.707031 46.152344 39.707031 " fill-opacity="1" fill-rule="nonzero"/></g><g fill="rgb(5.488586%, 27.059937%, 32.939148%)" fill-opacity="1"><g transform="translate(72.563361, 38.940858)"><g><path d="M 7.171875 -14.484375 C 8.503906 -14.484375 9.675781 -14.203125 10.6875 -13.640625 C 11.707031 -13.085938 12.492188 -12.265625 13.046875 -11.171875 C 13.609375 -10.085938 13.890625 -8.78125 13.890625 -7.25 C 13.890625 -5.707031 13.609375 -4.390625 13.046875 -3.296875 C 12.484375 -2.210938 11.691406 -1.390625 10.671875 -0.828125 C 9.648438 -0.273438 8.46875 0 7.125 0 L 1.671875 0 L 1.671875 -6.328125 L 0.65625 -6.328125 L 0.65625 -8.46875 L 1.671875 -8.46875 L 1.671875 -14.484375 Z M 6.53125 -2.890625 C 7.21875 -2.890625 7.835938 -2.984375 8.390625 -3.171875 C 8.953125 -3.359375 9.4375 -3.769531 9.84375 -4.40625 C 10.25 -5.050781 10.453125 -6 10.453125 -7.25 C 10.453125 -8.507812 10.25 -9.457031 9.84375 -10.09375 C 9.4375 -10.738281 8.953125 -11.15625 8.390625 -11.34375 C 7.835938 -11.539062 7.21875 -11.640625 6.53125 -11.640625 L 4.8125 -11.640625 L 4.8125 -8.46875 L 6.734375 -8.46875 L 6.734375 -6.328125 L 4.8125 -6.328125 L 4.8125 -2.890625 Z M 6.53125 -2.890625 "/></g></g></g><g fill="rgb(5.488586%, 27.059937%, 32.939148%)" fill-opacity="1"><g transform="translate(87.174158, 38.940858)"><g><path d="M 1.453125 -10.9375 L 4.65625 -10.9375 L 4.65625 0 L 1.453125 0 Z M 3.046875 -12.75 C 2.546875 -12.75 2.128906 -12.914062 1.796875 -13.25 C 1.472656 -13.59375 1.3125 -14.003906 1.3125 -14.484375 C 1.3125 -14.984375 1.472656 -15.398438 1.796875 -15.734375 C 2.128906 -16.078125 2.546875 -16.25 3.046875 -16.25 C 3.535156 -16.25 3.945312 -16.078125 4.28125 -15.734375 C 4.625 -15.398438 4.796875 -14.984375 4.796875 -14.484375 C 4.796875 -14.003906 4.625 -13.59375 4.28125 -13.25 C 3.945312 -12.914062 3.535156 -12.75 3.046875 -12.75 Z M 3.0625 5.1875 C 2.59375 5.1875 2.203125 5.023438 1.890625 4.703125 C 1.585938 4.390625 1.4375 4.007812 1.4375 3.5625 C 1.4375 3.101562 1.585938 2.71875 1.890625 2.40625 C 2.203125 2.09375 2.59375 1.9375 3.0625 1.9375 C 3.519531 1.9375 3.90625 2.09375 4.21875 2.40625 C 4.539062 2.726562 4.703125 3.113281 4.703125 3.5625 C 4.703125 4.007812 4.539062 4.390625 4.21875 4.703125 C 3.90625 5.023438 3.519531 5.1875 3.0625 5.1875 Z M 3.0625 5.1875 "/></g></g></g><g fill="rgb(5.488586%, 27.059937%, 32.939148%)" fill-opacity="1"><g transform="translate(93.270602, 38.940858)"><g><path d="M 1.078125 -10.9375 L 4.296875 -10.9375 L 4.296875 -9.34375 L 4.46875 -9.34375 C 4.695312 -9.851562 5.078125 -10.28125 5.609375 -10.625 C 6.140625 -10.976562 6.785156 -11.15625 7.546875 -11.15625 C 8.972656 -11.15625 9.960938 -10.703125 10.515625 -9.796875 C 11.066406 -8.898438 11.34375 -7.894531 11.34375 -6.78125 L 11.34375 0 L 8.125 0 L 8.125 -6.21875 C 8.125 -6.9375 7.960938 -7.5 7.640625 -7.90625 C 7.328125 -8.320312 6.863281 -8.53125 6.25 -8.53125 C 5.582031 -8.53125 5.085938 -8.3125 4.765625 -7.875 C 4.453125 -7.445312 4.296875 -6.894531 4.296875 -6.21875 L 4.296875 0 L 1.078125 0 Z M 1.078125 -10.9375 "/></g></g></g><g fill="rgb(5.488586%, 27.059937%, 32.939148%)" fill-opacity="1"><g transform="translate(105.628827, 38.940858)"><g><path d="M 1.078125 -15.34375 L 4.296875 -15.34375 L 4.296875 -9.34375 L 4.46875 -9.34375 C 4.695312 -9.851562 5.078125 -10.28125 5.609375 -10.625 C 6.140625 -10.976562 6.785156 -11.15625 7.546875 -11.15625 C 8.972656 -11.15625 9.960938 -10.703125 10.515625 -9.796875 C 11.066406 -8.898438 11.34375 -7.894531 11.34375 -6.78125 L 11.34375 0 L 8.125 0 L 8.125 -6.21875 C 8.125 -6.9375 7.960938 -7.5 7.640625 -7.90625 C 7.328125 -8.320312 6.851562 -8.53125 6.21875 -8.53125 C 5.582031 -8.53125 5.101562 -8.316406 4.78125 -7.890625 C 4.457031 -7.460938 4.296875 -6.90625 4.296875 -6.21875 L 4.296875 0 L 1.078125 0 Z M 1.078125 -15.34375 "/></g></g></g><g fill="rgb(5.488586%, 27.059937%, 32.939148%)" fill-opacity="1"><g transform="translate(117.987051, 38.940858)"><g/></g></g><g fill="rgb(5.488586%, 27.059937%, 32.939148%)" fill-opacity="1"><g transform="translate(122.740208, 38.940858)"><g><path d="M 14.078125 -7.21875 C 14.078125 -6.039062 13.894531 -4.957031 13.53125 -3.96875 C 13.164062 -2.988281 12.628906 -2.160156 11.921875 -1.484375 L 13.671875 0.84375 L 10.875 0.84375 L 10.046875 -0.265625 C 9.242188 0.0351562 8.382812 0.1875 7.46875 0.1875 C 6.019531 0.1875 4.789062 -0.144531 3.78125 -0.8125 C 2.78125 -1.476562 2.023438 -2.375 1.515625 -3.5 C 1.015625 -4.625 0.765625 -5.867188 0.765625 -7.234375 C 0.765625 -8.597656 1.019531 -9.851562 1.53125 -11 C 2.039062 -12.144531 2.796875 -13.054688 3.796875 -13.734375 C 4.804688 -14.421875 6.03125 -14.765625 7.46875 -14.765625 C 8.875 -14.765625 10.070312 -14.425781 11.0625 -13.75 C 12.0625 -13.070312 12.8125 -12.15625 13.3125 -11 C 13.820312 -9.851562 14.078125 -8.59375 14.078125 -7.21875 Z M 7.4375 -2.6875 C 7.6875 -2.6875 7.9375 -2.722656 8.1875 -2.796875 L 6 -5.75 L 8.78125 -5.75 L 9.9375 -4.203125 C 10.40625 -4.992188 10.640625 -6.007812 10.640625 -7.25 C 10.640625 -8.550781 10.363281 -9.648438 9.8125 -10.546875 C 9.269531 -11.441406 8.476562 -11.890625 7.4375 -11.890625 C 6.738281 -11.890625 6.144531 -11.675781 5.65625 -11.25 C 5.164062 -10.820312 4.800781 -10.253906 4.5625 -9.546875 C 4.320312 -8.847656 4.203125 -8.082031 4.203125 -7.25 C 4.203125 -5.96875 4.476562 -4.882812 5.03125 -4 C 5.59375 -3.125 6.394531 -2.6875 7.4375 -2.6875 Z M 7.4375 -2.6875 "/></g></g></g><g fill="rgb(5.488586%, 27.059937%, 32.939148%)" fill-opacity="1"><g transform="translate(137.578334, 38.940858)"><g><path d="M 11.140625 0 L 7.890625 0 L 7.890625 -1.640625 L 7.75 -1.640625 C 7.519531 -1.128906 7.148438 -0.691406 6.640625 -0.328125 C 6.128906 0.0234375 5.507812 0.203125 4.78125 0.203125 C 3.351562 0.203125 2.378906 -0.25 1.859375 -1.15625 C 1.335938 -2.0625 1.078125 -3.078125 1.078125 -4.203125 L 1.078125 -10.9375 L 4.28125 -10.9375 L 4.28125 -4.734375 C 4.28125 -4.046875 4.421875 -3.488281 4.703125 -3.0625 C 4.992188 -2.644531 5.445312 -2.4375 6.0625 -2.4375 C 6.6875 -2.4375 7.144531 -2.648438 7.4375 -3.078125 C 7.738281 -3.515625 7.890625 -4.066406 7.890625 -4.734375 L 7.890625 -10.9375 L 11.140625 -10.9375 Z M 11.140625 0 "/></g></g></g><g fill="rgb(5.488586%, 27.059937%, 32.939148%)" fill-opacity="1"><g transform="translate(149.729899, 38.940858)"><g><path d="M 4.90625 0.1875 C 3.550781 0.1875 2.503906 -0.320312 1.765625 -1.34375 C 1.023438 -2.375 0.65625 -3.753906 0.65625 -5.484375 C 0.65625 -7.210938 1.035156 -8.585938 1.796875 -9.609375 C 2.554688 -10.640625 3.601562 -11.15625 4.9375 -11.15625 C 5.863281 -11.15625 6.570312 -10.953125 7.0625 -10.546875 C 7.5625 -10.140625 7.910156 -9.734375 8.109375 -9.328125 L 8.265625 -9.328125 L 8.265625 -10.9375 L 11.515625 -10.9375 L 11.515625 0 L 8.265625 0 L 8.265625 -1.75 L 8.109375 -1.75 C 7.898438 -1.3125 7.539062 -0.878906 7.03125 -0.453125 C 6.53125 -0.0234375 5.820312 0.1875 4.90625 0.1875 Z M 6.125 -2.390625 C 6.851562 -2.390625 7.394531 -2.695312 7.75 -3.3125 C 8.113281 -3.925781 8.296875 -4.65625 8.296875 -5.5 C 8.296875 -6.320312 8.113281 -7.039062 7.75 -7.65625 C 7.394531 -8.269531 6.851562 -8.578125 6.125 -8.578125 C 5.363281 -8.578125 4.804688 -8.273438 4.453125 -7.671875 C 4.097656 -7.078125 3.921875 -6.359375 3.921875 -5.515625 C 3.921875 -4.660156 4.097656 -3.925781 4.453125 -3.3125 C 4.804688 -2.695312 5.363281 -2.390625 6.125 -2.390625 Z M 5 -12.6875 L 7.078125 -16.828125 L 10.25 -16.828125 L 7.546875 -12.671875 Z M 5 -12.6875 "/></g></g></g><g fill="rgb(5.488586%, 27.059937%, 32.939148%)" fill-opacity="1"><g transform="translate(162.460105, 38.940858)"><g><path d="M 1.078125 -10.9375 L 4.296875 -10.9375 L 4.296875 -9.34375 L 4.46875 -9.34375 C 4.695312 -9.851562 5.078125 -10.28125 5.609375 -10.625 C 6.140625 -10.976562 6.785156 -11.15625 7.546875 -11.15625 C 8.972656 -11.15625 9.960938 -10.703125 10.515625 -9.796875 C 11.066406 -8.898438 11.34375 -7.894531 11.34375 -6.78125 L 11.34375 0 L 8.125 0 L 8.125 -6.21875 C 8.125 -6.9375 7.960938 -7.5 7.640625 -7.90625 C 7.328125 -8.320312 6.863281 -8.53125 6.25 -8.53125 C 5.582031 -8.53125 5.085938 -8.3125 4.765625 -7.875 C 4.453125 -7.445312 4.296875 -6.894531 4.296875 -6.21875 L 4.296875 0 L 1.078125 0 Z M 1.078125 -10.9375 "/></g></g></g><g fill="rgb(5.488586%, 27.059937%, 32.939148%)" fill-opacity="1"><g transform="translate(174.818329, 38.940858)"><g/></g></g><g fill="rgb(5.488586%, 27.059937%, 32.939148%)" fill-opacity="1"><g transform="translate(179.571486, 38.940858)"><g><path d="M 7.421875 0.1875 C 6.023438 0.1875 4.828125 -0.148438 3.828125 -0.828125 C 2.828125 -1.515625 2.066406 -2.429688 1.546875 -3.578125 C 1.035156 -4.722656 0.78125 -5.960938 0.78125 -7.296875 C 0.78125 -8.628906 1.035156 -9.863281 1.546875 -11 C 2.066406 -12.144531 2.828125 -13.054688 3.828125 -13.734375 C 4.828125 -14.421875 6.023438 -14.765625 7.421875 -14.765625 C 9.117188 -14.765625 10.503906 -14.265625 11.578125 -13.265625 C 12.648438 -12.273438 13.347656 -10.992188 13.671875 -9.421875 L 10.546875 -9.421875 C 10.378906 -10.140625 10.019531 -10.738281 9.46875 -11.21875 C 8.925781 -11.707031 8.257812 -11.953125 7.46875 -11.953125 C 6.363281 -11.953125 5.53125 -11.519531 4.96875 -10.65625 C 4.414062 -9.789062 4.140625 -8.671875 4.140625 -7.296875 C 4.140625 -5.890625 4.414062 -4.757812 4.96875 -3.90625 C 5.53125 -3.050781 6.363281 -2.625 7.46875 -2.625 C 8.25 -2.625 8.90625 -2.859375 9.4375 -3.328125 C 9.96875 -3.796875 10.320312 -4.351562 10.5 -5 L 13.578125 -5 C 13.273438 -3.488281 12.585938 -2.242188 11.515625 -1.265625 C 10.453125 -0.296875 9.085938 0.1875 7.421875 0.1875 Z M 7.421875 0.1875 "/></g></g></g><g fill="rgb(5.488586%, 27.059937%, 32.939148%)" fill-opacity="1"><g transform="translate(193.9343, 38.940858)"><g><path d="M 6.03125 0.1875 C 4.875 0.1875 3.898438 -0.0664062 3.109375 -0.578125 C 2.316406 -1.085938 1.726562 -1.769531 1.34375 -2.625 C 0.957031 -3.476562 0.765625 -4.429688 0.765625 -5.484375 C 0.765625 -6.515625 0.957031 -7.457031 1.34375 -8.3125 C 1.726562 -9.175781 2.316406 -9.863281 3.109375 -10.375 C 3.898438 -10.894531 4.875 -11.15625 6.03125 -11.15625 C 7.1875 -11.15625 8.160156 -10.898438 8.953125 -10.390625 C 9.753906 -9.890625 10.347656 -9.207031 10.734375 -8.34375 C 11.117188 -7.476562 11.3125 -6.53125 11.3125 -5.5 C 11.3125 -4.46875 11.117188 -3.519531 10.734375 -2.65625 C 10.347656 -1.789062 9.753906 -1.097656 8.953125 -0.578125 C 8.160156 -0.0664062 7.1875 0.1875 6.03125 0.1875 Z M 6.03125 -2.390625 C 6.75 -2.390625 7.28125 -2.6875 7.625 -3.28125 C 7.96875 -3.875 8.140625 -4.617188 8.140625 -5.515625 C 8.140625 -6.410156 7.96875 -7.144531 7.625 -7.71875 C 7.28125 -8.289062 6.75 -8.578125 6.03125 -8.578125 C 5.320312 -8.578125 4.789062 -8.285156 4.4375 -7.703125 C 4.09375 -7.128906 3.921875 -6.398438 3.921875 -5.515625 C 3.921875 -4.617188 4.097656 -3.875 4.453125 -3.28125 C 4.804688 -2.6875 5.332031 -2.390625 6.03125 -2.390625 Z M 6.03125 -2.390625 "/></g></g></g><g fill="rgb(5.488586%, 27.059937%, 32.939148%)" fill-opacity="1"><g transform="translate(206.00319, 38.940858)"><g><path d="M 1.078125 -10.9375 L 4.296875 -10.9375 L 4.296875 -9.34375 L 4.46875 -9.34375 C 4.695312 -9.851562 5.078125 -10.28125 5.609375 -10.625 C 6.140625 -10.976562 6.785156 -11.15625 7.546875 -11.15625 C 8.972656 -11.15625 9.960938 -10.703125 10.515625 -9.796875 C 11.066406 -8.898438 11.34375 -7.894531 11.34375 -6.78125 L 11.34375 0 L 8.125 0 L 8.125 -6.21875 C 8.125 -6.9375 7.960938 -7.5 7.640625 -7.90625 C 7.328125 -8.320312 6.863281 -8.53125 6.25 -8.53125 C 5.582031 -8.53125 5.085938 -8.3125 4.765625 -7.875 C 4.453125 -7.445312 4.296875 -6.894531 4.296875 -6.21875 L 4.296875 0 L 1.078125 0 Z M 1.078125 -10.9375 "/></g></g></g><g fill="rgb(5.488586%, 27.059937%, 32.939148%)" fill-opacity="1"><g transform="translate(218.361414, 38.940858)"><g><path d="M 6.609375 -13.046875 C 6.203125 -13.046875 5.894531 -12.957031 5.6875 -12.78125 C 5.488281 -12.613281 5.367188 -12.40625 5.328125 -12.15625 C 5.285156 -11.914062 5.265625 -11.601562 5.265625 -11.21875 L 5.265625 -10.9375 L 7.671875 -10.9375 L 7.671875 -8.4375 L 5.265625 -8.4375 L 5.265625 0 L 2.0625 0 L 2.0625 -8.4375 L 0.75 -8.4375 L 0.75 -10.9375 L 2.0625 -10.9375 L 2.0625 -11.90625 C 2.0625 -12.757812 2.300781 -13.535156 2.78125 -14.234375 C 3.257812 -14.929688 4.226562 -15.28125 5.6875 -15.28125 C 6.039062 -15.28125 6.425781 -15.253906 6.84375 -15.203125 C 7.257812 -15.148438 7.535156 -15.101562 7.671875 -15.0625 L 7.671875 -12.96875 C 7.335938 -13.019531 6.984375 -13.046875 6.609375 -13.046875 Z M 6.609375 -13.046875 "/></g></g></g><g fill="rgb(5.488586%, 27.059937%, 32.939148%)" fill-opacity="1"><g transform="translate(226.524455, 38.940858)"><g><path d="M 6.015625 0.1875 C 4.859375 0.1875 3.882812 -0.078125 3.09375 -0.609375 C 2.300781 -1.140625 1.710938 -1.832031 1.328125 -2.6875 C 0.953125 -3.550781 0.765625 -4.484375 0.765625 -5.484375 C 0.765625 -6.472656 0.953125 -7.394531 1.328125 -8.25 C 1.710938 -9.113281 2.300781 -9.8125 3.09375 -10.34375 C 3.882812 -10.882812 4.875 -11.15625 6.0625 -11.15625 C 7.601562 -11.15625 8.828125 -10.671875 9.734375 -9.703125 C 10.640625 -8.734375 11.09375 -7.328125 11.09375 -5.484375 L 11.09375 -4.59375 L 3.859375 -4.59375 L 3.859375 -4.421875 C 3.859375 -3.859375 4.054688 -3.375 4.453125 -2.96875 C 4.847656 -2.5625 5.347656 -2.359375 5.953125 -2.359375 C 6.421875 -2.359375 6.820312 -2.460938 7.15625 -2.671875 C 7.488281 -2.890625 7.722656 -3.175781 7.859375 -3.53125 L 11.015625 -3.53125 C 10.742188 -2.445312 10.175781 -1.554688 9.3125 -0.859375 C 8.445312 -0.160156 7.347656 0.1875 6.015625 0.1875 Z M 8.015625 -6.65625 C 8.003906 -7.394531 7.816406 -7.941406 7.453125 -8.296875 C 7.085938 -8.660156 6.601562 -8.84375 6 -8.84375 C 5.375 -8.84375 4.878906 -8.648438 4.515625 -8.265625 C 4.148438 -7.878906 3.960938 -7.34375 3.953125 -6.65625 Z M 8.015625 -6.65625 "/></g></g></g><g fill="rgb(5.488586%, 27.059937%, 32.939148%)" fill-opacity="1"><g transform="translate(238.386685, 38.940858)"><g><path d="M 5.203125 0.1875 C 4.285156 0.1875 3.488281 0.015625 2.8125 -0.328125 C 2.132812 -0.671875 1.617188 -1.117188 1.265625 -1.671875 C 0.921875 -2.234375 0.75 -2.828125 0.75 -3.453125 L 0.75 -3.59375 L 3.859375 -3.59375 L 3.859375 -3.46875 C 3.859375 -3.15625 3.984375 -2.878906 4.234375 -2.640625 C 4.484375 -2.398438 4.835938 -2.28125 5.296875 -2.28125 C 5.679688 -2.28125 5.988281 -2.367188 6.21875 -2.546875 C 6.457031 -2.734375 6.578125 -2.976562 6.578125 -3.28125 C 6.578125 -3.5625 6.460938 -3.785156 6.234375 -3.953125 C 6.015625 -4.117188 5.742188 -4.226562 5.421875 -4.28125 L 4.234375 -4.53125 C 3.429688 -4.664062 2.691406 -4.984375 2.015625 -5.484375 C 1.347656 -5.992188 1.015625 -6.769531 1.015625 -7.8125 C 1.015625 -8.875 1.394531 -9.695312 2.15625 -10.28125 C 2.925781 -10.863281 3.910156 -11.15625 5.109375 -11.15625 C 6.003906 -11.15625 6.773438 -11 7.421875 -10.6875 C 8.066406 -10.375 8.554688 -9.957031 8.890625 -9.4375 C 9.222656 -8.914062 9.390625 -8.367188 9.390625 -7.796875 L 9.390625 -7.6875 L 6.265625 -7.6875 L 6.265625 -7.75 C 6.265625 -8.03125 6.160156 -8.285156 5.953125 -8.515625 C 5.742188 -8.753906 5.425781 -8.875 5 -8.875 C 4.644531 -8.875 4.359375 -8.785156 4.140625 -8.609375 C 3.929688 -8.429688 3.828125 -8.191406 3.828125 -7.890625 C 3.828125 -7.359375 4.273438 -7.007812 5.171875 -6.84375 L 6.453125 -6.546875 C 7.316406 -6.359375 8.046875 -6.007812 8.640625 -5.5 C 9.242188 -4.988281 9.546875 -4.265625 9.546875 -3.328125 C 9.546875 -2.609375 9.351562 -1.984375 8.96875 -1.453125 C 8.59375 -0.921875 8.070312 -0.515625 7.40625 -0.234375 C 6.75 0.046875 6.015625 0.1875 5.203125 0.1875 Z M 5.203125 0.1875 "/></g></g></g><g fill="rgb(5.488586%, 27.059937%, 32.939148%)" fill-opacity="1"><g transform="translate(248.574984, 38.940858)"><g><path d="M 5.203125 0.1875 C 4.285156 0.1875 3.488281 0.015625 2.8125 -0.328125 C 2.132812 -0.671875 1.617188 -1.117188 1.265625 -1.671875 C 0.921875 -2.234375 0.75 -2.828125 0.75 -3.453125 L 0.75 -3.59375 L 3.859375 -3.59375 L 3.859375 -3.46875 C 3.859375 -3.15625 3.984375 -2.878906 4.234375 -2.640625 C 4.484375 -2.398438 4.835938 -2.28125 5.296875 -2.28125 C 5.679688 -2.28125 5.988281 -2.367188 6.21875 -2.546875 C 6.457031 -2.734375 6.578125 -2.976562 6.578125 -3.28125 C 6.578125 -3.5625 6.460938 -3.785156 6.234375 -3.953125 C 6.015625 -4.117188 5.742188 -4.226562 5.421875 -4.28125 L 4.234375 -4.53125 C 3.429688 -4.664062 2.691406 -4.984375 2.015625 -5.484375 C 1.347656 -5.992188 1.015625 -6.769531 1.015625 -7.8125 C 1.015625 -8.875 1.394531 -9.695312 2.15625 -10.28125 C 2.925781 -10.863281 3.910156 -11.15625 5.109375 -11.15625 C 6.003906 -11.15625 6.773438 -11 7.421875 -10.6875 C 8.066406 -10.375 8.554688 -9.957031 8.890625 -9.4375 C 9.222656 -8.914062 9.390625 -8.367188 9.390625 -7.796875 L 9.390625 -7.6875 L 6.265625 -7.6875 L 6.265625 -7.75 C 6.265625 -8.03125 6.160156 -8.285156 5.953125 -8.515625 C 5.742188 -8.753906 5.425781 -8.875 5 -8.875 C 4.644531 -8.875 4.359375 -8.785156 4.140625 -8.609375 C 3.929688 -8.429688 3.828125 -8.191406 3.828125 -7.890625 C 3.828125 -7.359375 4.273438 -7.007812 5.171875 -6.84375 L 6.453125 -6.546875 C 7.316406 -6.359375 8.046875 -6.007812 8.640625 -5.5 C 9.242188 -4.988281 9.546875 -4.265625 9.546875 -3.328125 C 9.546875 -2.609375 9.351562 -1.984375 8.96875 -1.453125 C 8.59375 -0.921875 8.070312 -0.515625 7.40625 -0.234375 C 6.75 0.046875 6.015625 0.1875 5.203125 0.1875 Z M 5.203125 0.1875 "/></g></g></g><g fill="rgb(5.488586%, 27.059937%, 32.939148%)" fill-opacity="1"><g transform="translate(258.763282, 38.940858)"><g><path d="M 1.453125 -10.9375 L 4.65625 -10.9375 L 4.65625 0 L 1.453125 0 Z M 3.046875 -12.75 C 2.546875 -12.75 2.128906 -12.914062 1.796875 -13.25 C 1.472656 -13.59375 1.3125 -14.003906 1.3125 -14.484375 C 1.3125 -14.984375 1.472656 -15.398438 1.796875 -15.734375 C 2.128906 -16.078125 2.546875 -16.25 3.046875 -16.25 C 3.535156 -16.25 3.945312 -16.078125 4.28125 -15.734375 C 4.625 -15.398438 4.796875 -14.984375 4.796875 -14.484375 C 4.796875 -14.003906 4.625 -13.59375 4.28125 -13.25 C 3.945312 -12.914062 3.535156 -12.75 3.046875 -12.75 Z M 3.046875 -12.75 "/></g></g></g><g fill="rgb(5.488586%, 27.059937%, 32.939148%)" fill-opacity="1"><g transform="translate(264.859726, 38.940858)"><g><path d="M 6.03125 0.1875 C 4.875 0.1875 3.898438 -0.0664062 3.109375 -0.578125 C 2.316406 -1.085938 1.726562 -1.769531 1.34375 -2.625 C 0.957031 -3.476562 0.765625 -4.429688 0.765625 -5.484375 C 0.765625 -6.515625 0.957031 -7.457031 1.34375 -8.3125 C 1.726562 -9.175781 2.316406 -9.863281 3.109375 -10.375 C 3.898438 -10.894531 4.875 -11.15625 6.03125 -11.15625 C 7.1875 -11.15625 8.160156 -10.898438 8.953125 -10.390625 C 9.753906 -9.890625 10.347656 -9.207031 10.734375 -8.34375 C 11.117188 -7.476562 11.3125 -6.53125 11.3125 -5.5 C 11.3125 -4.46875 11.117188 -3.519531 10.734375 -2.65625 C 10.347656 -1.789062 9.753906 -1.097656 8.953125 -0.578125 C 8.160156 -0.0664062 7.1875 0.1875 6.03125 0.1875 Z M 6.03125 -2.390625 C 6.75 -2.390625 7.28125 -2.6875 7.625 -3.28125 C 7.96875 -3.875 8.140625 -4.617188 8.140625 -5.515625 C 8.140625 -6.410156 7.96875 -7.144531 7.625 -7.71875 C 7.28125 -8.289062 6.75 -8.578125 6.03125 -8.578125 C 5.320312 -8.578125 4.789062 -8.285156 4.4375 -7.703125 C 4.09375 -7.128906 3.921875 -6.398438 3.921875 -5.515625 C 3.921875 -4.617188 4.097656 -3.875 4.453125 -3.28125 C 4.804688 -2.6875 5.332031 -2.390625 6.03125 -2.390625 Z M 6.03125 -2.390625 "/></g></g></g><g fill="rgb(5.488586%, 27.059937%, 32.939148%)" fill-opacity="1"><g transform="translate(276.928616, 38.940858)"><g><path d="M 1.078125 -10.9375 L 4.296875 -10.9375 L 4.296875 -9.34375 L 4.46875 -9.34375 C 4.695312 -9.851562 5.078125 -10.28125 5.609375 -10.625 C 6.140625 -10.976562 6.785156 -11.15625 7.546875 -11.15625 C 8.972656 -11.15625 9.960938 -10.703125 10.515625 -9.796875 C 11.066406 -8.898438 11.34375 -7.894531 11.34375 -6.78125 L 11.34375 0 L 8.125 0 L 8.125 -6.21875 C 8.125 -6.9375 7.960938 -7.5 7.640625 -7.90625 C 7.328125 -8.320312 6.863281 -8.53125 6.25 -8.53125 C 5.582031 -8.53125 5.085938 -8.3125 4.765625 -7.875 C 4.453125 -7.445312 4.296875 -6.894531 4.296875 -6.21875 L 4.296875 0 L 1.078125 0 Z M 1.078125 -10.9375 "/></g></g></g><g fill="rgb(5.488586%, 27.059937%, 32.939148%)" fill-opacity="1"><g transform="translate(289.286841, 38.940858)"><g><path d="M 5.203125 0.1875 C 4.285156 0.1875 3.488281 0.015625 2.8125 -0.328125 C 2.132812 -0.671875 1.617188 -1.117188 1.265625 -1.671875 C 0.921875 -2.234375 0.75 -2.828125 0.75 -3.453125 L 0.75 -3.59375 L 3.859375 -3.59375 L 3.859375 -3.46875 C 3.859375 -3.15625 3.984375 -2.878906 4.234375 -2.640625 C 4.484375 -2.398438 4.835938 -2.28125 5.296875 -2.28125 C 5.679688 -2.28125 5.988281 -2.367188 6.21875 -2.546875 C 6.457031 -2.734375 6.578125 -2.976562 6.578125 -3.28125 C 6.578125 -3.5625 6.460938 -3.785156 6.234375 -3.953125 C 6.015625 -4.117188 5.742188 -4.226562 5.421875 -4.28125 L 4.234375 -4.53125 C 3.429688 -4.664062 2.691406 -4.984375 2.015625 -5.484375 C 1.347656 -5.992188 1.015625 -6.769531 1.015625 -7.8125 C 1.015625 -8.875 1.394531 -9.695312 2.15625 -10.28125 C 2.925781 -10.863281 3.910156 -11.15625 5.109375 -11.15625 C 6.003906 -11.15625 6.773438 -11 7.421875 -10.6875 C 8.066406 -10.375 8.554688 -9.957031 8.890625 -9.4375 C 9.222656 -8.914062 9.390625 -8.367188 9.390625 -7.796875 L 9.390625 -7.6875 L 6.265625 -7.6875 L 6.265625 -7.75 C 6.265625 -8.03125 6.160156 -8.285156 5.953125 -8.515625 C 5.742188 -8.753906 5.425781 -8.875 5 -8.875 C 4.644531 -8.875 4.359375 -8.785156 4.140625 -8.609375 C 3.929688 -8.429688 3.828125 -8.191406 3.828125 -7.890625 C 3.828125 -7.359375 4.273438 -7.007812 5.171875 -6.84375 L 6.453125 -6.546875 C 7.316406 -6.359375 8.046875 -6.007812 8.640625 -5.5 C 9.242188 -4.988281 9.546875 -4.265625 9.546875 -3.328125 C 9.546875 -2.609375 9.351562 -1.984375 8.96875 -1.453125 C 8.59375 -0.921875 8.070312 -0.515625 7.40625 -0.234375 C 6.75 0.046875 6.015625 0.1875 5.203125 0.1875 Z M 5.203125 0.1875 "/></g></g></g><g fill="rgb(5.488586%, 27.059937%, 32.939148%)" fill-opacity="1"><g transform="translate(104.032105, 54.288658)"><g><path d="M 7.96875 -9.765625 L 9.046875 -9.765625 L 9.046875 0 L 8.15625 0 L 2.265625 -7.859375 L 2.265625 0 L 1.203125 0 L 1.203125 -9.765625 L 2.078125 -9.765625 L 7.96875 -1.90625 Z M 7.96875 -9.765625 "/></g></g></g><g fill="rgb(5.488586%, 27.059937%, 32.939148%)" fill-opacity="1"><g transform="translate(114.26974, 54.288658)"><g><path d="M 7.21875 -8.375 C 7.21875 -7.875 7.101562 -7.453125 6.875 -7.109375 C 6.65625 -6.773438 6.335938 -6.535156 5.921875 -6.390625 C 6.328125 -6.085938 6.640625 -5.6875 6.859375 -5.1875 C 7.078125 -4.6875 7.1875 -4.117188 7.1875 -3.484375 C 7.1875 -2.765625 7.050781 -2.132812 6.78125 -1.59375 C 6.507812 -1.050781 6.125 -0.632812 5.625 -0.34375 C 5.132812 -0.0507812 4.566406 0.09375 3.921875 0.09375 C 3.273438 0.09375 2.703125 -0.0507812 2.203125 -0.34375 C 1.710938 -0.632812 1.332031 -1.050781 1.0625 -1.59375 C 0.789062 -2.132812 0.65625 -2.765625 0.65625 -3.484375 C 0.65625 -4.203125 0.789062 -4.832031 1.0625 -5.375 C 1.332031 -5.914062 1.710938 -6.332031 2.203125 -6.625 C 2.703125 -6.914062 3.273438 -7.0625 3.921875 -7.0625 C 4.078125 -7.0625 4.285156 -7.046875 4.546875 -7.015625 C 4.703125 -6.984375 4.828125 -6.96875 4.921875 -6.96875 C 5.367188 -6.96875 5.695312 -7.085938 5.90625 -7.328125 C 6.125 -7.566406 6.234375 -7.960938 6.234375 -8.515625 L 6.234375 -8.71875 L 7.21875 -8.71875 Z M 3.921875 -0.828125 C 4.609375 -0.828125 5.132812 -1.050781 5.5 -1.5 C 5.863281 -1.957031 6.046875 -2.617188 6.046875 -3.484375 C 6.046875 -4.328125 5.859375 -4.976562 5.484375 -5.4375 C 5.109375 -5.894531 4.585938 -6.125 3.921875 -6.125 C 3.242188 -6.125 2.71875 -5.894531 2.34375 -5.4375 C 1.96875 -4.976562 1.78125 -4.328125 1.78125 -3.484375 C 1.78125 -2.617188 1.960938 -1.957031 2.328125 -1.5 C 2.703125 -1.050781 3.234375 -0.828125 3.921875 -0.828125 Z M 3.921875 -0.828125 "/></g></g></g><g fill="rgb(5.488586%, 27.059937%, 32.939148%)" fill-opacity="1"><g transform="translate(122.119508, 54.288658)"><g><path d="M 1.0625 0 L 1.0625 -6.90625 L 2.1875 -6.90625 L 2.1875 0 Z M 1.28125 -9.671875 L 2.640625 -9.671875 L 2.640625 -8.40625 L 1.28125 -8.40625 Z M 1.28125 -9.671875 "/></g></g></g><g fill="rgb(5.488586%, 27.059937%, 32.939148%)" fill-opacity="1"><g transform="translate(125.385671, 54.288658)"><g/></g></g><g fill="rgb(5.488586%, 27.059937%, 32.939148%)" fill-opacity="1"><g transform="translate(128.96747, 54.288658)"><g><path d="M 7.21875 -6.90625 L 7.21875 -0.0625 C 7.21875 0.96875 6.953125 1.742188 6.421875 2.265625 C 5.898438 2.796875 5.128906 3.0625 4.109375 3.0625 C 3.054688 3.0625 2.148438 2.820312 1.390625 2.34375 L 1.578125 1.4375 C 2.015625 1.6875 2.425781 1.863281 2.8125 1.96875 C 3.207031 2.082031 3.640625 2.140625 4.109375 2.140625 C 4.773438 2.140625 5.273438 1.960938 5.609375 1.609375 C 5.953125 1.253906 6.125 0.734375 6.125 0.046875 L 6.125 -1.59375 C 5.90625 -1.15625 5.59375 -0.8125 5.1875 -0.5625 C 4.78125 -0.320312 4.300781 -0.203125 3.75 -0.203125 C 3.144531 -0.203125 2.601562 -0.34375 2.125 -0.625 C 1.65625 -0.914062 1.289062 -1.320312 1.03125 -1.84375 C 0.78125 -2.363281 0.65625 -2.960938 0.65625 -3.640625 C 0.65625 -4.316406 0.78125 -4.914062 1.03125 -5.4375 C 1.289062 -5.957031 1.65625 -6.359375 2.125 -6.640625 C 2.601562 -6.921875 3.144531 -7.0625 3.75 -7.0625 C 4.289062 -7.0625 4.765625 -6.941406 5.171875 -6.703125 C 5.585938 -6.472656 5.898438 -6.140625 6.109375 -5.703125 L 6.109375 -6.90625 Z M 3.96875 -1.140625 C 4.632812 -1.140625 5.15625 -1.359375 5.53125 -1.796875 C 5.914062 -2.242188 6.109375 -2.859375 6.109375 -3.640625 C 6.109375 -4.410156 5.914062 -5.015625 5.53125 -5.453125 C 5.15625 -5.898438 4.632812 -6.125 3.96875 -6.125 C 3.289062 -6.125 2.753906 -5.898438 2.359375 -5.453125 C 1.972656 -5.015625 1.78125 -4.410156 1.78125 -3.640625 C 1.78125 -2.859375 1.972656 -2.242188 2.359375 -1.796875 C 2.753906 -1.359375 3.289062 -1.140625 3.96875 -1.140625 Z M 3.96875 -1.140625 "/></g></g></g><g fill="rgb(5.488586%, 27.059937%, 32.939148%)" fill-opacity="1"><g transform="translate(137.256386, 54.288658)"><g><path d="M 8.5 -8.71875 L 8.5 -8.375 C 8.5 -7.789062 8.351562 -7.316406 8.0625 -6.953125 C 7.78125 -6.585938 7.375 -6.363281 6.84375 -6.28125 L 6.84375 0 L 5.765625 0 L 5.765625 -1.1875 C 5.546875 -0.769531 5.238281 -0.453125 4.84375 -0.234375 C 4.445312 -0.015625 4.003906 0.09375 3.515625 0.09375 C 2.703125 0.09375 2.082031 -0.132812 1.65625 -0.59375 C 1.238281 -1.050781 1.03125 -1.726562 1.03125 -2.625 L 1.03125 -6.90625 L 2.140625 -6.90625 L 2.140625 -2.640625 C 2.140625 -2.023438 2.265625 -1.570312 2.515625 -1.28125 C 2.773438 -0.988281 3.164062 -0.84375 3.6875 -0.84375 C 4.300781 -0.84375 4.796875 -1.039062 5.171875 -1.4375 C 5.546875 -1.832031 5.734375 -2.351562 5.734375 -3 L 5.734375 -6.90625 L 6.046875 -6.90625 C 6.566406 -6.90625 6.941406 -7.03125 7.171875 -7.28125 C 7.398438 -7.53125 7.515625 -7.941406 7.515625 -8.515625 L 7.515625 -8.71875 Z M 4.359375 -7.640625 L 3.625 -7.640625 L 3.625 -8.03125 C 3.625 -8.207031 3.671875 -8.363281 3.765625 -8.5 C 3.859375 -8.632812 3.988281 -8.78125 4.15625 -8.9375 C 4.289062 -9.070312 4.378906 -9.171875 4.421875 -9.234375 C 4.472656 -9.296875 4.5 -9.367188 4.5 -9.453125 C 4.5 -9.554688 4.453125 -9.640625 4.359375 -9.703125 C 4.265625 -9.765625 4.125 -9.796875 3.9375 -9.796875 C 3.695312 -9.796875 3.425781 -9.742188 3.125 -9.640625 L 2.921875 -10.25 C 3.285156 -10.414062 3.65625 -10.5 4.03125 -10.5 C 4.46875 -10.5 4.804688 -10.40625 5.046875 -10.21875 C 5.285156 -10.039062 5.40625 -9.8125 5.40625 -9.53125 C 5.40625 -9.320312 5.359375 -9.148438 5.265625 -9.015625 C 5.171875 -8.890625 5.023438 -8.75 4.828125 -8.59375 C 4.671875 -8.46875 4.550781 -8.351562 4.46875 -8.25 C 4.394531 -8.144531 4.359375 -8.019531 4.359375 -7.875 Z M 4.359375 -7.640625 "/></g></g></g><g fill="rgb(5.488586%, 27.059937%, 32.939148%)" fill-opacity="1"><g transform="translate(145.366909, 54.288658)"><g><path d="M 1.0625 0 L 1.0625 -6.90625 L 2.1875 -6.90625 L 2.1875 0 Z M 1.28125 -9.671875 L 2.640625 -9.671875 L 2.640625 -8.40625 L 1.28125 -8.40625 Z M 1.28125 -9.671875 "/></g></g></g><g fill="rgb(5.488586%, 27.059937%, 32.939148%)" fill-opacity="1"><g transform="translate(148.633071, 54.288658)"><g/></g></g><g fill="rgb(5.488586%, 27.059937%, 32.939148%)" fill-opacity="1"><g transform="translate(152.21487, 54.288658)"><g><path d="M 2.546875 -6.015625 L 2.546875 -2.25 C 2.546875 -1.738281 2.648438 -1.378906 2.859375 -1.171875 C 3.078125 -0.960938 3.378906 -0.859375 3.765625 -0.859375 C 4.015625 -0.859375 4.257812 -0.898438 4.5 -0.984375 L 4.5 -0.046875 C 4.21875 0.046875 3.898438 0.09375 3.546875 0.09375 C 2.878906 0.09375 2.359375 -0.0859375 1.984375 -0.453125 C 1.617188 -0.828125 1.4375 -1.375 1.4375 -2.09375 L 1.4375 -6.015625 L 0.09375 -6.015625 L 0.09375 -6.90625 L 1.4375 -6.90625 L 1.4375 -8.671875 L 2.546875 -9.0625 L 2.546875 -6.90625 L 4.53125 -6.90625 L 4.53125 -6.015625 Z M 2.546875 -6.015625 "/></g></g></g><g fill="rgb(5.488586%, 27.059937%, 32.939148%)" fill-opacity="1"><g transform="translate(157.01805, 54.288658)"><g><path d="M 7.140625 -6.90625 L 7.140625 0 L 6.046875 0 L 6.046875 -1.25 C 5.847656 -0.820312 5.546875 -0.488281 5.140625 -0.25 C 4.734375 -0.0195312 4.257812 0.09375 3.71875 0.09375 C 3.101562 0.09375 2.5625 -0.0507812 2.09375 -0.34375 C 1.632812 -0.632812 1.28125 -1.046875 1.03125 -1.578125 C 0.78125 -2.117188 0.65625 -2.742188 0.65625 -3.453125 C 0.65625 -4.171875 0.78125 -4.800781 1.03125 -5.34375 C 1.289062 -5.882812 1.648438 -6.304688 2.109375 -6.609375 C 2.578125 -6.910156 3.113281 -7.0625 3.71875 -7.0625 C 4.257812 -7.0625 4.726562 -6.941406 5.125 -6.703125 C 5.53125 -6.472656 5.835938 -6.140625 6.046875 -5.703125 L 6.046875 -6.90625 Z M 3.9375 -0.828125 C 4.613281 -0.828125 5.132812 -1.054688 5.5 -1.515625 C 5.863281 -1.972656 6.046875 -2.628906 6.046875 -3.484375 C 6.046875 -4.335938 5.863281 -4.988281 5.5 -5.4375 C 5.132812 -5.894531 4.613281 -6.125 3.9375 -6.125 C 3.257812 -6.125 2.726562 -5.890625 2.34375 -5.421875 C 1.96875 -4.953125 1.78125 -4.296875 1.78125 -3.453125 C 1.78125 -2.609375 1.96875 -1.957031 2.34375 -1.5 C 2.71875 -1.050781 3.25 -0.828125 3.9375 -0.828125 Z M 2.96875 -7.640625 L 1.9375 -7.640625 L 3.578125 -10.4375 L 4.359375 -10.4375 L 5.984375 -7.640625 L 4.953125 -7.640625 L 3.96875 -9.609375 Z M 2.96875 -7.640625 "/></g></g></g><g fill="rgb(5.488586%, 27.059937%, 32.939148%)" fill-opacity="1"><g transform="translate(165.252084, 54.288658)"><g><path d="M 8.71875 -7.0625 C 10.25 -7.0625 11.015625 -6.148438 11.015625 -4.328125 L 11.015625 0 L 9.90625 0 L 9.90625 -4.28125 C 9.90625 -4.925781 9.789062 -5.394531 9.5625 -5.6875 C 9.34375 -5.976562 8.984375 -6.125 8.484375 -6.125 C 7.890625 -6.125 7.425781 -5.925781 7.09375 -5.53125 C 6.769531 -5.144531 6.609375 -4.613281 6.609375 -3.9375 L 6.609375 0 L 5.5 0 L 5.5 -4.28125 C 5.5 -4.914062 5.382812 -5.378906 5.15625 -5.671875 C 4.925781 -5.972656 4.5625 -6.125 4.0625 -6.125 C 3.476562 -6.125 3.019531 -5.925781 2.6875 -5.53125 C 2.351562 -5.144531 2.1875 -4.613281 2.1875 -3.9375 L 2.1875 0 L 1.0625 0 L 1.0625 -4.96875 C 1.0625 -5.675781 1.023438 -6.320312 0.953125 -6.90625 L 2.015625 -6.90625 L 2.125 -5.6875 C 2.320312 -6.132812 2.609375 -6.472656 2.984375 -6.703125 C 3.359375 -6.941406 3.800781 -7.0625 4.3125 -7.0625 C 4.851562 -7.0625 5.296875 -6.953125 5.640625 -6.734375 C 5.992188 -6.515625 6.253906 -6.175781 6.421875 -5.71875 C 6.628906 -6.132812 6.9375 -6.460938 7.34375 -6.703125 C 7.75 -6.941406 8.207031 -7.0625 8.71875 -7.0625 Z M 8.71875 -7.0625 "/></g></g></g><g fill="rgb(5.488586%, 27.059937%, 32.939148%)" fill-opacity="1"><g transform="translate(177.314939, 54.288658)"><g/></g></g><g fill="rgb(5.488586%, 27.059937%, 32.939148%)" fill-opacity="1"><g transform="translate(180.896738, 54.288658)"><g><path d="M 2.546875 -6.015625 L 2.546875 -2.25 C 2.546875 -1.738281 2.648438 -1.378906 2.859375 -1.171875 C 3.078125 -0.960938 3.378906 -0.859375 3.765625 -0.859375 C 4.015625 -0.859375 4.257812 -0.898438 4.5 -0.984375 L 4.5 -0.046875 C 4.21875 0.046875 3.898438 0.09375 3.546875 0.09375 C 2.878906 0.09375 2.359375 -0.0859375 1.984375 -0.453125 C 1.617188 -0.828125 1.4375 -1.375 1.4375 -2.09375 L 1.4375 -6.015625 L 0.09375 -6.015625 L 0.09375 -6.90625 L 1.4375 -6.90625 L 1.4375 -8.671875 L 2.546875 -9.0625 L 2.546875 -6.90625 L 4.53125 -6.90625 L 4.53125 -6.015625 Z M 2.546875 -6.015625 "/></g></g></g><g fill="rgb(5.488586%, 27.059937%, 32.939148%)" fill-opacity="1"><g transform="translate(185.699919, 54.288658)"><g><path d="M 8.5 -8.71875 L 8.5 -8.375 C 8.5 -7.789062 8.351562 -7.316406 8.0625 -6.953125 C 7.78125 -6.585938 7.375 -6.363281 6.84375 -6.28125 L 6.84375 0 L 5.765625 0 L 5.765625 -1.1875 C 5.546875 -0.769531 5.238281 -0.453125 4.84375 -0.234375 C 4.445312 -0.015625 4.003906 0.09375 3.515625 0.09375 C 2.703125 0.09375 2.082031 -0.132812 1.65625 -0.59375 C 1.238281 -1.050781 1.03125 -1.726562 1.03125 -2.625 L 1.03125 -6.90625 L 2.140625 -6.90625 L 2.140625 -2.640625 C 2.140625 -2.023438 2.265625 -1.570312 2.515625 -1.28125 C 2.773438 -0.988281 3.164062 -0.84375 3.6875 -0.84375 C 4.300781 -0.84375 4.796875 -1.039062 5.171875 -1.4375 C 5.546875 -1.832031 5.734375 -2.351562 5.734375 -3 L 5.734375 -6.90625 L 6.046875 -6.90625 C 6.566406 -6.90625 6.941406 -7.03125 7.171875 -7.28125 C 7.398438 -7.53125 7.515625 -7.941406 7.515625 -8.515625 L 7.515625 -8.71875 Z M 8.5 -8.71875 "/></g></g></g><g fill="rgb(5.488586%, 27.059937%, 32.939148%)" fill-opacity="1"><g transform="translate(193.810441, 54.288658)"><g/></g></g><g fill="rgb(5.488586%, 27.059937%, 32.939148%)" fill-opacity="1"><g transform="translate(197.39224, 54.288658)"><g><path d="M 3.96875 0.09375 C 3.300781 0.09375 2.71875 -0.0507812 2.21875 -0.34375 C 1.71875 -0.632812 1.332031 -1.046875 1.0625 -1.578125 C 0.789062 -2.117188 0.65625 -2.742188 0.65625 -3.453125 C 0.65625 -4.171875 0.789062 -4.800781 1.0625 -5.34375 C 1.34375 -5.882812 1.734375 -6.304688 2.234375 -6.609375 C 2.742188 -6.910156 3.335938 -7.0625 4.015625 -7.0625 C 4.484375 -7.0625 4.929688 -6.976562 5.359375 -6.8125 C 5.796875 -6.65625 6.160156 -6.4375 6.453125 -6.15625 L 6.078125 -5.34375 C 5.734375 -5.613281 5.394531 -5.8125 5.0625 -5.9375 C 4.738281 -6.0625 4.410156 -6.125 4.078125 -6.125 C 3.367188 -6.125 2.8125 -5.890625 2.40625 -5.421875 C 2.007812 -4.953125 1.8125 -4.296875 1.8125 -3.453125 C 1.8125 -2.617188 2.007812 -1.972656 2.40625 -1.515625 C 2.800781 -1.054688 3.359375 -0.828125 4.078125 -0.828125 C 4.410156 -0.828125 4.738281 -0.890625 5.0625 -1.015625 C 5.394531 -1.140625 5.734375 -1.34375 6.078125 -1.625 L 6.453125 -0.796875 C 6.160156 -0.523438 5.789062 -0.304688 5.34375 -0.140625 C 4.894531 0.015625 4.4375 0.09375 3.96875 0.09375 Z M 3.96875 0.09375 "/></g></g></g><g fill="rgb(5.488586%, 27.059937%, 32.939148%)" fill-opacity="1"><g transform="translate(204.185318, 54.288658)"><g><path d="M 6.84375 -6.90625 L 6.84375 0 L 5.765625 0 L 5.765625 -1.1875 C 5.546875 -0.769531 5.238281 -0.453125 4.84375 -0.234375 C 4.445312 -0.015625 4.003906 0.09375 3.515625 0.09375 C 2.703125 0.09375 2.082031 -0.132812 1.65625 -0.59375 C 1.238281 -1.050781 1.03125 -1.726562 1.03125 -2.625 L 1.03125 -6.90625 L 2.140625 -6.90625 L 2.140625 -2.640625 C 2.140625 -2.023438 2.265625 -1.570312 2.515625 -1.28125 C 2.773438 -0.988281 3.164062 -0.84375 3.6875 -0.84375 C 4.300781 -0.84375 4.796875 -1.039062 5.171875 -1.4375 C 5.546875 -1.832031 5.734375 -2.351562 5.734375 -3 L 5.734375 -6.90625 Z M 4.359375 -7.640625 L 3.625 -7.640625 L 3.625 -8.03125 C 3.625 -8.207031 3.671875 -8.363281 3.765625 -8.5 C 3.859375 -8.632812 3.988281 -8.78125 4.15625 -8.9375 C 4.289062 -9.070312 4.378906 -9.171875 4.421875 -9.234375 C 4.472656 -9.296875 4.5 -9.367188 4.5 -9.453125 C 4.5 -9.554688 4.453125 -9.640625 4.359375 -9.703125 C 4.265625 -9.765625 4.125 -9.796875 3.9375 -9.796875 C 3.695312 -9.796875 3.425781 -9.742188 3.125 -9.640625 L 2.921875 -10.25 C 3.285156 -10.414062 3.65625 -10.5 4.03125 -10.5 C 4.46875 -10.5 4.804688 -10.40625 5.046875 -10.21875 C 5.285156 -10.039062 5.40625 -9.8125 5.40625 -9.53125 C 5.40625 -9.320312 5.359375 -9.148438 5.265625 -9.015625 C 5.171875 -8.890625 5.023438 -8.75 4.828125 -8.59375 C 4.671875 -8.46875 4.550781 -8.351562 4.46875 -8.25 C 4.394531 -8.144531 4.359375 -8.019531 4.359375 -7.875 Z M 4.359375 -7.640625 "/></g></g></g><g fill="rgb(5.488586%, 27.059937%, 32.939148%)" fill-opacity="1"><g transform="translate(212.103701, 54.288658)"><g><path d="M 7.140625 -6.90625 L 7.140625 0 L 6.046875 0 L 6.046875 -1.25 C 5.847656 -0.820312 5.546875 -0.488281 5.140625 -0.25 C 4.734375 -0.0195312 4.257812 0.09375 3.71875 0.09375 C 3.101562 0.09375 2.5625 -0.0507812 2.09375 -0.34375 C 1.632812 -0.632812 1.28125 -1.046875 1.03125 -1.578125 C 0.78125 -2.117188 0.65625 -2.742188 0.65625 -3.453125 C 0.65625 -4.171875 0.78125 -4.800781 1.03125 -5.34375 C 1.289062 -5.882812 1.648438 -6.304688 2.109375 -6.609375 C 2.578125 -6.910156 3.113281 -7.0625 3.71875 -7.0625 C 4.257812 -7.0625 4.726562 -6.941406 5.125 -6.703125 C 5.53125 -6.472656 5.835938 -6.140625 6.046875 -5.703125 L 6.046875 -6.90625 Z M 3.9375 -0.828125 C 4.613281 -0.828125 5.132812 -1.054688 5.5 -1.515625 C 5.863281 -1.972656 6.046875 -2.628906 6.046875 -3.484375 C 6.046875 -4.335938 5.863281 -4.988281 5.5 -5.4375 C 5.132812 -5.894531 4.613281 -6.125 3.9375 -6.125 C 3.257812 -6.125 2.726562 -5.890625 2.34375 -5.421875 C 1.96875 -4.953125 1.78125 -4.296875 1.78125 -3.453125 C 1.78125 -2.609375 1.96875 -1.957031 2.34375 -1.5 C 2.71875 -1.050781 3.25 -0.828125 3.9375 -0.828125 Z M 3.9375 -0.828125 "/></g></g></g><g fill="rgb(5.488586%, 27.059937%, 32.939148%)" fill-opacity="1"><g transform="translate(220.337735, 54.288658)"><g/></g></g><g fill="rgb(5.488586%, 27.059937%, 32.939148%)" fill-opacity="1"><g transform="translate(223.919534, 54.288658)"><g><path d="M 4.515625 -7.0625 C 5.117188 -7.0625 5.648438 -6.914062 6.109375 -6.625 C 6.578125 -6.332031 6.941406 -5.914062 7.203125 -5.375 C 7.460938 -4.84375 7.59375 -4.222656 7.59375 -3.515625 C 7.59375 -2.796875 7.460938 -2.164062 7.203125 -1.625 C 6.941406 -1.082031 6.578125 -0.660156 6.109375 -0.359375 C 5.648438 -0.0546875 5.117188 0.09375 4.515625 0.09375 C 3.972656 0.09375 3.5 -0.0234375 3.09375 -0.265625 C 2.695312 -0.503906 2.394531 -0.84375 2.1875 -1.28125 L 2.1875 0 L 1.0625 0 L 1.0625 -10.09375 L 2.1875 -10.09375 L 2.1875 -5.671875 C 2.382812 -6.128906 2.6875 -6.472656 3.09375 -6.703125 C 3.5 -6.941406 3.972656 -7.0625 4.515625 -7.0625 Z M 4.3125 -0.828125 C 4.976562 -0.828125 5.5 -1.0625 5.875 -1.53125 C 6.25 -2 6.4375 -2.660156 6.4375 -3.515625 C 6.4375 -4.347656 6.25 -4.988281 5.875 -5.4375 C 5.507812 -5.894531 4.988281 -6.125 4.3125 -6.125 C 3.625 -6.125 3.097656 -5.894531 2.734375 -5.4375 C 2.367188 -4.988281 2.1875 -4.335938 2.1875 -3.484375 C 2.1875 -2.628906 2.367188 -1.972656 2.734375 -1.515625 C 3.097656 -1.054688 3.625 -0.828125 4.3125 -0.828125 Z M 4.3125 -0.828125 "/></g></g></g><g fill="rgb(5.488586%, 27.059937%, 32.939148%)" fill-opacity="1"><g transform="translate(232.153568, 54.288658)"><g><path d="M 7.140625 -6.90625 L 7.140625 0 L 6.046875 0 L 6.046875 -1.25 C 5.847656 -0.820312 5.546875 -0.488281 5.140625 -0.25 C 4.734375 -0.0195312 4.257812 0.09375 3.71875 0.09375 C 3.101562 0.09375 2.5625 -0.0507812 2.09375 -0.34375 C 1.632812 -0.632812 1.28125 -1.046875 1.03125 -1.578125 C 0.78125 -2.117188 0.65625 -2.742188 0.65625 -3.453125 C 0.65625 -4.171875 0.78125 -4.800781 1.03125 -5.34375 C 1.289062 -5.882812 1.648438 -6.304688 2.109375 -6.609375 C 2.578125 -6.910156 3.113281 -7.0625 3.71875 -7.0625 C 4.257812 -7.0625 4.726562 -6.941406 5.125 -6.703125 C 5.53125 -6.472656 5.835938 -6.140625 6.046875 -5.703125 L 6.046875 -6.90625 Z M 3.9375 -0.828125 C 4.613281 -0.828125 5.132812 -1.054688 5.5 -1.515625 C 5.863281 -1.972656 6.046875 -2.628906 6.046875 -3.484375 C 6.046875 -4.335938 5.863281 -4.988281 5.5 -5.4375 C 5.132812 -5.894531 4.613281 -6.125 3.9375 -6.125 C 3.257812 -6.125 2.726562 -5.890625 2.34375 -5.421875 C 1.96875 -4.953125 1.78125 -4.296875 1.78125 -3.453125 C 1.78125 -2.609375 1.96875 -1.957031 2.34375 -1.5 C 2.71875 -1.050781 3.25 -0.828125 3.9375 -0.828125 Z M 3.484375 1.296875 L 4.75 1.296875 L 4.75 2.53125 L 3.484375 2.53125 Z M 3.484375 1.296875 "/></g></g></g><g fill="rgb(5.488586%, 27.059937%, 32.939148%)" fill-opacity="1"><g transform="translate(240.387601, 54.288658)"><g><path d="M 4.515625 -7.0625 C 6.171875 -7.0625 7 -6.148438 7 -4.328125 L 7 0 L 5.890625 0 L 5.890625 -4.28125 C 5.890625 -4.914062 5.757812 -5.378906 5.5 -5.671875 C 5.238281 -5.972656 4.835938 -6.125 4.296875 -6.125 C 3.648438 -6.125 3.132812 -5.925781 2.75 -5.53125 C 2.375 -5.144531 2.1875 -4.617188 2.1875 -3.953125 L 2.1875 0 L 1.0625 0 L 1.0625 -4.96875 C 1.0625 -5.675781 1.023438 -6.320312 0.953125 -6.90625 L 2.015625 -6.90625 L 2.125 -5.671875 C 2.332031 -6.117188 2.644531 -6.460938 3.0625 -6.703125 C 3.488281 -6.941406 3.972656 -7.0625 4.515625 -7.0625 Z M 4.515625 -7.0625 "/></g></g></g><g fill="rgb(5.488586%, 27.059937%, 32.939148%)" fill-opacity="1"><g transform="translate(248.415778, 54.288658)"><g><path d="M 0.875 -1.40625 L 2.296875 -1.40625 L 2.296875 0 L 0.875 0 Z M 0.875 -1.40625 "/></g></g></g></svg>